<?xml version="1.0" encoding="UTF-8" standalone="no"?>
<!-- Created with Inkscape (http://www.inkscape.org/) -->

<svg
   width="859.59302mm"
   height="831.0542mm"
   viewBox="0 0 859.59302 831.0542"
   version="1.1"
   id="svg14361"
   xml:space="preserve"
   xmlns="http://www.w3.org/2000/svg"
   xmlns:svg="http://www.w3.org/2000/svg"><defs
     id="defs14358" /><g
     id="layer1"
     transform="translate(-5934.5937,-28094.519)"><path
       id="path1"
       style="fill:#2b83e8;fill-opacity:1;stroke-width:26.6074;paint-order:markers stroke fill"
       d="m 10757.207,24676.504 c -10.284,4.898 -19.186,12.743 -26.232,22.052 -8.788,11.61 -17.242,34.121 -20.783,48.286 -2.264,9.056 -3.919,18.271 -5.065,27.549 -1.792,14.497 -4.885,14.892 -8.402,0.709 -6.432,-25.933 -12.694,-51.908 -18.874,-77.902 -3.38,-14.216 -17.943,-25.782 -32.555,-25.843 -23.458,-0.1 -46.916,-0.217 -70.374,-0.261 -21.93,-0.04 -35.327,17.242 -29.923,38.496 22.533,88.625 45.067,177.252 67.6,265.878 3.601,14.161 17.878,22.277 31.888,18.126 24.82,-7.354 49.639,-14.707 74.458,-22.061 14.151,-4.192 22.681,-19.188 19.052,-33.494 -9.41,-37.094 -18.824,-74.187 -28.243,-111.279 -3.632,-14.305 0.938,-36.85 14.749,-40.711 11.57,-3.234 33.154,-5.321 47.754,-5.843 17.995,-0.643 36.028,-0.388 54.053,-0.273 14.611,0.09 29.821,-11.41 33.972,-25.42 5.732,-19.347 11.464,-38.693 17.196,-58.04 4.151,-14.01 -4.33,-25.368 -18.942,-25.368 l -48.706,0 c -14.759,0 -39.431,-0.884 -52.623,5.399 z"
       transform="matrix(2.568015,0,0,2.568015,-21142.046,-35261.139)" /></g></svg>
